<svg xmlns="http://www.w3.org/2000/svg" class="css-1j8o68f" viewBox="105 0 140 164.43"><defs id="SvgjsDefs1611"/><g id="SvgjsG1612" featurekey="JiLV9t-0" transform="matrix(4.535899759771392,0,0,4.535899759771392,61.60382536590152,-31.18431084842832)" fill="#ffffff"><g xmlns="http://www.w3.org/2000/svg"><path d="M40.201,14.415c-1.993-7.225-14.974-7.534-15.199-7.54c0,0-0.001,0-0.003,0h-0.001c-0.225,0.006-13.208,0.314-15.2,7.54   c-2.009,7.286,9.608,28.765,15.2,28.71c0.001,0,0.001,0,0.001,0s0.002,0,0.003,0C30.594,43.18,42.212,21.701,40.201,14.415z    M12.054,16.841c0.109-0.079,0.224-0.163,0.346-0.26c0.868-0.678,1.211-1.108,1.574-1.565c0.37-0.465,0.752-0.945,1.677-1.669   h0.001c0.925-0.722,1.483-0.977,2.023-1.224c0.53-0.241,1.031-0.469,1.899-1.148c0.306-0.237,0.543-0.445,0.741-0.634   c0.359-0.079,0.708-0.149,1.045-0.208c-0.309,0.37-0.698,0.78-1.404,1.332c-0.925,0.723-1.484,0.978-2.024,1.224   c-0.53,0.242-1.032,0.471-1.9,1.148l0,0l0,0c-0.868,0.678-1.21,1.109-1.574,1.566c-0.37,0.464-0.751,0.944-1.678,1.667   c-0.292,0.23-0.545,0.408-0.776,0.557C12.009,17.353,12.025,17.09,12.054,16.841z M12.308,20.409   c-0.043-0.213-0.083-0.424-0.116-0.629c0.505-0.232,1.001-0.468,1.833-1.119c0.868-0.678,1.211-1.109,1.574-1.565   c0.37-0.465,0.751-0.945,1.677-1.669h0.002c0.924-0.722,1.483-0.978,2.023-1.224c0.53-0.241,1.032-0.469,1.898-1.147   c0.868-0.678,1.211-1.108,1.573-1.565c0.37-0.463,0.751-0.944,1.677-1.667c0.03-0.024,0.059-0.044,0.089-0.067   c0.271-0.015,0.439-0.02,0.46-0.02H25c0.002,0,0.003,0,0.003,0c0.024,0,0.242,0.006,0.597,0.029   c-0.225,0.143-0.475,0.319-0.767,0.548c-0.869,0.678-1.211,1.109-1.574,1.565c-0.369,0.464-0.751,0.944-1.677,1.667   c-0.925,0.723-1.483,0.978-2.024,1.224c-0.53,0.241-1.031,0.47-1.898,1.148h-0.001l0,0c-0.867,0.678-1.21,1.109-1.573,1.565   c-0.369,0.465-0.751,0.945-1.678,1.669c-0.927,0.724-1.485,0.978-2.024,1.225C12.357,20.386,12.333,20.397,12.308,20.409z    M12.798,22.374c0.359-0.212,0.66-0.351,0.952-0.483c0.531-0.243,1.031-0.471,1.9-1.149c0.867-0.678,1.211-1.109,1.573-1.566   c0.367-0.461,0.748-0.938,1.661-1.655l0.055-0.06l0.015,0.007c0.894-0.691,1.443-0.942,1.972-1.184   c0.53-0.243,1.031-0.471,1.9-1.148c0.867-0.678,1.209-1.109,1.572-1.565c0.369-0.465,0.751-0.944,1.676-1.667   c0.925-0.722,1.482-0.978,2.023-1.224c0.296-0.134,0.583-0.268,0.928-0.473c0.279,0.054,0.566,0.114,0.857,0.182   c-0.641,0.45-1.091,0.657-1.526,0.856c-0.531,0.241-1.032,0.47-1.9,1.148c-0.867,0.678-1.21,1.108-1.573,1.565   c-0.369,0.464-0.75,0.944-1.676,1.667c-0.926,0.723-1.484,0.977-2.024,1.224c-0.53,0.241-1.031,0.47-1.899,1.146l0,0l0,0v0.001   c-0.868,0.677-1.211,1.108-1.575,1.565c-0.369,0.465-0.751,0.945-1.677,1.669c-0.926,0.722-1.485,0.978-2.025,1.224   c-0.323,0.148-0.635,0.291-1.025,0.532C12.918,22.781,12.856,22.577,12.798,22.374z M13.666,24.955   c0.743-0.544,1.234-0.768,1.709-0.984c0.53-0.242,1.031-0.471,1.899-1.149c0.868-0.678,1.211-1.109,1.574-1.566   c0.37-0.464,0.752-0.945,1.677-1.667h0.001c0.925-0.724,1.483-0.978,2.023-1.224c0.53-0.243,1.031-0.471,1.899-1.149   c0.867-0.677,1.21-1.108,1.573-1.563c0.368-0.464,0.751-0.944,1.677-1.668c0.925-0.722,1.484-0.978,2.022-1.224   c0.532-0.242,1.033-0.471,1.899-1.147c0.25-0.196,0.452-0.369,0.627-0.529c0.217,0.078,0.43,0.161,0.642,0.25   c-0.231,0.227-0.513,0.478-0.886,0.768c-0.926,0.724-1.484,0.978-2.023,1.225c-0.531,0.241-1.032,0.47-1.899,1.148   c-0.867,0.677-1.21,1.108-1.573,1.564c-0.368,0.465-0.75,0.945-1.675,1.667c-0.926,0.724-1.485,0.978-2.024,1.224   c-0.53,0.242-1.031,0.471-1.898,1.148l0,0c0,0,0,0-0.001,0.001c-0.867,0.677-1.211,1.108-1.573,1.565   c-0.37,0.465-0.752,0.944-1.678,1.667s-1.485,0.979-2.024,1.225c-0.495,0.227-0.968,0.445-1.733,1.022   C13.82,25.356,13.742,25.155,13.666,24.955z M14.984,28.067c-0.09-0.194-0.181-0.389-0.268-0.583   c0.083-0.069,0.167-0.137,0.26-0.21c0.925-0.724,1.485-0.978,2.024-1.225c0.53-0.241,1.032-0.471,1.899-1.148   c0.868-0.679,1.212-1.109,1.574-1.566c0.37-0.464,0.753-0.945,1.678-1.667c0-0.001,0-0.001,0-0.001   c0.926-0.722,1.483-0.977,2.024-1.224c0.53-0.241,1.031-0.469,1.898-1.147c0.868-0.677,1.21-1.108,1.573-1.564   c0.368-0.465,0.751-0.945,1.676-1.668c0.926-0.724,1.485-0.978,2.025-1.225c0.529-0.241,1.03-0.47,1.897-1.148   c0.783-0.61,1.14-1.021,1.466-1.43c0.177,0.111,0.35,0.226,0.518,0.347c-0.348,0.436-0.736,0.897-1.602,1.572   c-0.925,0.724-1.482,0.978-2.022,1.224c-0.531,0.242-1.033,0.471-1.899,1.147c-0.867,0.678-1.21,1.11-1.573,1.565   c-0.368,0.465-0.751,0.945-1.677,1.667c-0.924,0.724-1.483,0.978-2.024,1.224c-0.53,0.242-1.03,0.471-1.898,1.148   c-0.868,0.678-1.211,1.109-1.574,1.566c-0.37,0.464-0.752,0.943-1.678,1.667c-0.925,0.724-1.483,0.979-2.024,1.225   c-0.53,0.243-1.032,0.472-1.899,1.149C15.219,27.871,15.098,27.971,14.984,28.067z M16.207,30.509   c-0.102-0.188-0.202-0.377-0.3-0.568c0.193-0.178,0.417-0.37,0.693-0.586c0.232-0.182,0.44-0.333,0.632-0.463   c0.572-0.388,0.988-0.578,1.394-0.762c0.53-0.242,1.031-0.471,1.899-1.149c0.76-0.593,1.117-0.997,1.438-1.395   c0.046-0.058,0.091-0.113,0.137-0.17c0.369-0.466,0.751-0.945,1.677-1.669c0.926-0.723,1.484-0.978,2.024-1.224   c0.53-0.241,1.031-0.469,1.899-1.147c0.867-0.678,1.209-1.108,1.573-1.565c0.368-0.463,0.75-0.944,1.676-1.666   c0.928-0.724,1.484-0.979,2.025-1.225c0.528-0.241,1.03-0.47,1.899-1.148c0.867-0.678,1.209-1.108,1.573-1.565   c0.069-0.09,0.145-0.181,0.219-0.272c0.136,0.164,0.266,0.334,0.382,0.513c-0.037,0.049-0.076,0.098-0.116,0.147   c-0.37,0.465-0.75,0.944-1.676,1.667c-0.928,0.723-1.484,0.978-2.025,1.224c-0.529,0.241-1.03,0.47-1.899,1.148   c-0.867,0.678-1.21,1.109-1.573,1.565c-0.368,0.464-0.75,0.944-1.676,1.667c-0.925,0.723-1.484,0.978-2.023,1.224   c-0.53,0.242-1.031,0.469-1.899,1.148c-0.868,0.678-1.211,1.109-1.575,1.565c-0.369,0.465-0.751,0.944-1.677,1.668   c-0.926,0.724-1.484,0.979-2.025,1.225c-0.53,0.242-1.031,0.47-1.899,1.149C16.661,30.095,16.412,30.313,16.207,30.509z    M28.182,38.474c-0.462,0.294-0.823,0.461-1.176,0.621c-0.53,0.242-1.031,0.471-1.899,1.148c-0.008,0.006-0.014,0.012-0.021,0.018   c-0.028,0.001-0.057,0.005-0.083,0.004c-0.001,0-0.003,0-0.003,0s0,0-0.001,0c-0.235,0.003-0.482-0.042-0.739-0.126   c0.14-0.121,0.29-0.247,0.466-0.385c0.231-0.181,0.44-0.333,0.632-0.463c0.572-0.388,0.988-0.578,1.393-0.762   c0.529-0.242,1.03-0.471,1.9-1.149c0.76-0.593,1.116-0.997,1.438-1.395c0.044-0.056,0.091-0.113,0.135-0.17   c0.277-0.35,0.564-0.708,1.082-1.172C30.263,36.173,29.195,37.495,28.182,38.474z M33.598,30.872   c-0.398,0.242-0.725,0.393-1.039,0.536c-0.531,0.242-1.032,0.471-1.899,1.147c-0.869,0.678-1.212,1.109-1.576,1.566   c-0.368,0.464-0.75,0.943-1.678,1.667c-0.925,0.724-1.482,0.979-2.023,1.226c-0.53,0.242-1.032,0.471-1.899,1.148   c-0.456,0.355-0.765,0.643-1.009,0.902c-0.154-0.129-0.309-0.268-0.465-0.411c0.201-0.216,0.445-0.449,0.769-0.72   c0.099-0.084,0.206-0.17,0.323-0.261c0.926-0.724,1.485-0.978,2.024-1.225c0.53-0.241,1.032-0.47,1.899-1.148   c0.869-0.678,1.212-1.109,1.575-1.565c0.368-0.464,0.75-0.945,1.678-1.668l0,0c0.926-0.724,1.482-0.978,2.023-1.224   c0.531-0.242,1.032-0.471,1.899-1.149c0.012-0.009,0.023-0.018,0.035-0.026C34.026,30.073,33.814,30.475,33.598,30.872z    M36.428,24.705c-0.072,0.053-0.145,0.106-0.222,0.167c-0.867,0.679-1.21,1.108-1.573,1.565c-0.368,0.464-0.751,0.944-1.676,1.668   c-0.926,0.723-1.484,0.977-2.025,1.224c-0.529,0.241-1.03,0.47-1.897,1.146v0.001l0,0c-0.869,0.677-1.212,1.108-1.575,1.565   c-0.369,0.465-0.751,0.944-1.677,1.668c-0.925,0.723-1.484,0.979-2.024,1.224c-0.531,0.243-1.033,0.472-1.901,1.149   c-0.593,0.464-0.939,0.812-1.215,1.131c-0.134-0.156-0.268-0.317-0.403-0.484c0.172-0.193,0.374-0.4,0.636-0.635   c0.173-0.154,0.37-0.319,0.6-0.501c0.927-0.723,1.485-0.978,2.025-1.224c0.53-0.242,1.032-0.471,1.9-1.149   c0.868-0.678,1.21-1.109,1.574-1.566c0.369-0.463,0.751-0.943,1.679-1.667l0,0c0.925-0.723,1.482-0.978,2.022-1.224   c0.532-0.242,1.03-0.471,1.9-1.148c0.866-0.678,1.209-1.109,1.573-1.564c0.368-0.464,0.75-0.944,1.676-1.668   c0.37-0.289,0.68-0.501,0.955-0.67C36.667,24.04,36.551,24.371,36.428,24.705z M37.541,21.094   c-0.407,0.251-0.738,0.402-1.063,0.549c-0.529,0.242-1.03,0.471-1.897,1.149c-0.869,0.677-1.212,1.108-1.573,1.564   c-0.37,0.465-0.75,0.945-1.678,1.667c-0.925,0.724-1.482,0.979-2.022,1.224c-0.532,0.243-1.03,0.472-1.9,1.148   c-0.867,0.678-1.21,1.109-1.573,1.566c-0.092,0.116-0.186,0.232-0.288,0.354c-0.307,0.365-0.694,0.771-1.389,1.313   c-0.694,0.543-1.183,0.822-1.611,1.031c-0.142,0.07-0.279,0.132-0.414,0.193c-0.53,0.243-1.031,0.471-1.899,1.149   c-0.586,0.458-0.931,0.802-1.206,1.119c-0.121-0.173-0.242-0.349-0.362-0.526c0.277-0.308,0.634-0.651,1.186-1.082   c0.925-0.724,1.485-0.978,2.024-1.224c0.531-0.242,1.033-0.471,1.901-1.149c0.867-0.678,1.21-1.109,1.573-1.566   c0.371-0.465,0.752-0.944,1.678-1.667l0,0c0.927-0.724,1.483-0.978,2.024-1.225c0.529-0.241,1.03-0.47,1.897-1.148   c0.869-0.677,1.212-1.108,1.573-1.563c0.37-0.465,0.753-0.945,1.678-1.668c0.926-0.724,1.482-0.978,2.023-1.224   c0.444-0.203,0.871-0.399,1.505-0.854C37.674,20.508,37.611,20.798,37.541,21.094z M36.88,18.341   c-0.926,0.723-1.485,0.978-2.025,1.224c-0.529,0.241-1.03,0.47-1.899,1.148c-0.867,0.678-1.21,1.108-1.571,1.565   c-0.37,0.464-0.753,0.944-1.678,1.668c-0.926,0.722-1.482,0.977-2.023,1.224c-0.531,0.241-1.032,0.469-1.9,1.147l0,0   c-0.866,0.678-1.21,1.109-1.573,1.565c-0.37,0.465-0.752,0.944-1.678,1.668c-0.925,0.723-1.484,0.979-2.024,1.226   c-0.532,0.241-1.033,0.469-1.901,1.147c-0.482,0.378-0.801,0.677-1.052,0.948c-0.111-0.182-0.222-0.367-0.331-0.552   c0.25-0.258,0.564-0.543,1.001-0.886c0.927-0.723,1.485-0.978,2.025-1.224c0.53-0.242,1.031-0.471,1.899-1.149   c0.868-0.678,1.211-1.109,1.575-1.566c0.369-0.464,0.751-0.943,1.678-1.667h-0.001c0.926-0.723,1.484-0.978,2.023-1.224   c0.531-0.242,1.032-0.471,1.899-1.148s1.21-1.108,1.573-1.564c0.371-0.464,0.751-0.944,1.676-1.668   c0.928-0.722,1.484-0.978,2.025-1.224c0.529-0.241,1.03-0.469,1.899-1.147c0.729-0.57,1.086-0.965,1.398-1.347   c0.047,0.263,0.077,0.542,0.091,0.839C37.721,17.629,37.381,17.948,36.88,18.341z"/></g></g></svg>