<svg width="273.75618217373636" height="205.9171875" viewBox="0 0 350 263.2671710013143" class="css-1j8o68f"><defs id="SvgjsDefs1611"></defs><g id="SvgjsG1612" featurekey="JiLV9t-0" transform="matrix(4.535899759771392,0,0,4.535899759771392,61.60382536590152,-31.18431084842832)" fill="#4c41cc"><g xmlns="http://www.w3.org/2000/svg"><path d="M40.201,14.415c-1.993-7.225-14.974-7.534-15.199-7.54c0,0-0.001,0-0.003,0h-0.001c-0.225,0.006-13.208,0.314-15.2,7.54   c-2.009,7.286,9.608,28.765,15.2,28.71c0.001,0,0.001,0,0.001,0s0.002,0,0.003,0C30.594,43.18,42.212,21.701,40.201,14.415z    M12.054,16.841c0.109-0.079,0.224-0.163,0.346-0.26c0.868-0.678,1.211-1.108,1.574-1.565c0.37-0.465,0.752-0.945,1.677-1.669   h0.001c0.925-0.722,1.483-0.977,2.023-1.224c0.53-0.241,1.031-0.469,1.899-1.148c0.306-0.237,0.543-0.445,0.741-0.634   c0.359-0.079,0.708-0.149,1.045-0.208c-0.309,0.37-0.698,0.78-1.404,1.332c-0.925,0.723-1.484,0.978-2.024,1.224   c-0.53,0.242-1.032,0.471-1.9,1.148l0,0l0,0c-0.868,0.678-1.21,1.109-1.574,1.566c-0.37,0.464-0.751,0.944-1.678,1.667   c-0.292,0.23-0.545,0.408-0.776,0.557C12.009,17.353,12.025,17.09,12.054,16.841z M12.308,20.409   c-0.043-0.213-0.083-0.424-0.116-0.629c0.505-0.232,1.001-0.468,1.833-1.119c0.868-0.678,1.211-1.109,1.574-1.565   c0.37-0.465,0.751-0.945,1.677-1.669h0.002c0.924-0.722,1.483-0.978,2.023-1.224c0.53-0.241,1.032-0.469,1.898-1.147   c0.868-0.678,1.211-1.108,1.573-1.565c0.37-0.463,0.751-0.944,1.677-1.667c0.03-0.024,0.059-0.044,0.089-0.067   c0.271-0.015,0.439-0.02,0.46-0.02H25c0.002,0,0.003,0,0.003,0c0.024,0,0.242,0.006,0.597,0.029   c-0.225,0.143-0.475,0.319-0.767,0.548c-0.869,0.678-1.211,1.109-1.574,1.565c-0.369,0.464-0.751,0.944-1.677,1.667   c-0.925,0.723-1.483,0.978-2.024,1.224c-0.53,0.241-1.031,0.47-1.898,1.148h-0.001l0,0c-0.867,0.678-1.21,1.109-1.573,1.565   c-0.369,0.465-0.751,0.945-1.678,1.669c-0.927,0.724-1.485,0.978-2.024,1.225C12.357,20.386,12.333,20.397,12.308,20.409z    M12.798,22.374c0.359-0.212,0.66-0.351,0.952-0.483c0.531-0.243,1.031-0.471,1.9-1.149c0.867-0.678,1.211-1.109,1.573-1.566   c0.367-0.461,0.748-0.938,1.661-1.655l0.055-0.06l0.015,0.007c0.894-0.691,1.443-0.942,1.972-1.184   c0.53-0.243,1.031-0.471,1.9-1.148c0.867-0.678,1.209-1.109,1.572-1.565c0.369-0.465,0.751-0.944,1.676-1.667   c0.925-0.722,1.482-0.978,2.023-1.224c0.296-0.134,0.583-0.268,0.928-0.473c0.279,0.054,0.566,0.114,0.857,0.182   c-0.641,0.45-1.091,0.657-1.526,0.856c-0.531,0.241-1.032,0.47-1.9,1.148c-0.867,0.678-1.21,1.108-1.573,1.565   c-0.369,0.464-0.75,0.944-1.676,1.667c-0.926,0.723-1.484,0.977-2.024,1.224c-0.53,0.241-1.031,0.47-1.899,1.146l0,0l0,0v0.001   c-0.868,0.677-1.211,1.108-1.575,1.565c-0.369,0.465-0.751,0.945-1.677,1.669c-0.926,0.722-1.485,0.978-2.025,1.224   c-0.323,0.148-0.635,0.291-1.025,0.532C12.918,22.781,12.856,22.577,12.798,22.374z M13.666,24.955   c0.743-0.544,1.234-0.768,1.709-0.984c0.53-0.242,1.031-0.471,1.899-1.149c0.868-0.678,1.211-1.109,1.574-1.566   c0.37-0.464,0.752-0.945,1.677-1.667h0.001c0.925-0.724,1.483-0.978,2.023-1.224c0.53-0.243,1.031-0.471,1.899-1.149   c0.867-0.677,1.21-1.108,1.573-1.563c0.368-0.464,0.751-0.944,1.677-1.668c0.925-0.722,1.484-0.978,2.022-1.224   c0.532-0.242,1.033-0.471,1.899-1.147c0.25-0.196,0.452-0.369,0.627-0.529c0.217,0.078,0.43,0.161,0.642,0.25   c-0.231,0.227-0.513,0.478-0.886,0.768c-0.926,0.724-1.484,0.978-2.023,1.225c-0.531,0.241-1.032,0.47-1.899,1.148   c-0.867,0.677-1.21,1.108-1.573,1.564c-0.368,0.465-0.75,0.945-1.675,1.667c-0.926,0.724-1.485,0.978-2.024,1.224   c-0.53,0.242-1.031,0.471-1.898,1.148l0,0c0,0,0,0-0.001,0.001c-0.867,0.677-1.211,1.108-1.573,1.565   c-0.37,0.465-0.752,0.944-1.678,1.667s-1.485,0.979-2.024,1.225c-0.495,0.227-0.968,0.445-1.733,1.022   C13.82,25.356,13.742,25.155,13.666,24.955z M14.984,28.067c-0.09-0.194-0.181-0.389-0.268-0.583   c0.083-0.069,0.167-0.137,0.26-0.21c0.925-0.724,1.485-0.978,2.024-1.225c0.53-0.241,1.032-0.471,1.899-1.148   c0.868-0.679,1.212-1.109,1.574-1.566c0.37-0.464,0.753-0.945,1.678-1.667c0-0.001,0-0.001,0-0.001   c0.926-0.722,1.483-0.977,2.024-1.224c0.53-0.241,1.031-0.469,1.898-1.147c0.868-0.677,1.21-1.108,1.573-1.564   c0.368-0.465,0.751-0.945,1.676-1.668c0.926-0.724,1.485-0.978,2.025-1.225c0.529-0.241,1.03-0.47,1.897-1.148   c0.783-0.61,1.14-1.021,1.466-1.43c0.177,0.111,0.35,0.226,0.518,0.347c-0.348,0.436-0.736,0.897-1.602,1.572   c-0.925,0.724-1.482,0.978-2.022,1.224c-0.531,0.242-1.033,0.471-1.899,1.147c-0.867,0.678-1.21,1.11-1.573,1.565   c-0.368,0.465-0.751,0.945-1.677,1.667c-0.924,0.724-1.483,0.978-2.024,1.224c-0.53,0.242-1.03,0.471-1.898,1.148   c-0.868,0.678-1.211,1.109-1.574,1.566c-0.37,0.464-0.752,0.943-1.678,1.667c-0.925,0.724-1.483,0.979-2.024,1.225   c-0.53,0.243-1.032,0.472-1.899,1.149C15.219,27.871,15.098,27.971,14.984,28.067z M16.207,30.509   c-0.102-0.188-0.202-0.377-0.3-0.568c0.193-0.178,0.417-0.37,0.693-0.586c0.232-0.182,0.44-0.333,0.632-0.463   c0.572-0.388,0.988-0.578,1.394-0.762c0.53-0.242,1.031-0.471,1.899-1.149c0.76-0.593,1.117-0.997,1.438-1.395   c0.046-0.058,0.091-0.113,0.137-0.17c0.369-0.466,0.751-0.945,1.677-1.669c0.926-0.723,1.484-0.978,2.024-1.224   c0.53-0.241,1.031-0.469,1.899-1.147c0.867-0.678,1.209-1.108,1.573-1.565c0.368-0.463,0.75-0.944,1.676-1.666   c0.928-0.724,1.484-0.979,2.025-1.225c0.528-0.241,1.03-0.47,1.899-1.148c0.867-0.678,1.209-1.108,1.573-1.565   c0.069-0.09,0.145-0.181,0.219-0.272c0.136,0.164,0.266,0.334,0.382,0.513c-0.037,0.049-0.076,0.098-0.116,0.147   c-0.37,0.465-0.75,0.944-1.676,1.667c-0.928,0.723-1.484,0.978-2.025,1.224c-0.529,0.241-1.03,0.47-1.899,1.148   c-0.867,0.678-1.21,1.109-1.573,1.565c-0.368,0.464-0.75,0.944-1.676,1.667c-0.925,0.723-1.484,0.978-2.023,1.224   c-0.53,0.242-1.031,0.469-1.899,1.148c-0.868,0.678-1.211,1.109-1.575,1.565c-0.369,0.465-0.751,0.944-1.677,1.668   c-0.926,0.724-1.484,0.979-2.025,1.225c-0.53,0.242-1.031,0.47-1.899,1.149C16.661,30.095,16.412,30.313,16.207,30.509z    M28.182,38.474c-0.462,0.294-0.823,0.461-1.176,0.621c-0.53,0.242-1.031,0.471-1.899,1.148c-0.008,0.006-0.014,0.012-0.021,0.018   c-0.028,0.001-0.057,0.005-0.083,0.004c-0.001,0-0.003,0-0.003,0s0,0-0.001,0c-0.235,0.003-0.482-0.042-0.739-0.126   c0.14-0.121,0.29-0.247,0.466-0.385c0.231-0.181,0.44-0.333,0.632-0.463c0.572-0.388,0.988-0.578,1.393-0.762   c0.529-0.242,1.03-0.471,1.9-1.149c0.76-0.593,1.116-0.997,1.438-1.395c0.044-0.056,0.091-0.113,0.135-0.17   c0.277-0.35,0.564-0.708,1.082-1.172C30.263,36.173,29.195,37.495,28.182,38.474z M33.598,30.872   c-0.398,0.242-0.725,0.393-1.039,0.536c-0.531,0.242-1.032,0.471-1.899,1.147c-0.869,0.678-1.212,1.109-1.576,1.566   c-0.368,0.464-0.75,0.943-1.678,1.667c-0.925,0.724-1.482,0.979-2.023,1.226c-0.53,0.242-1.032,0.471-1.899,1.148   c-0.456,0.355-0.765,0.643-1.009,0.902c-0.154-0.129-0.309-0.268-0.465-0.411c0.201-0.216,0.445-0.449,0.769-0.72   c0.099-0.084,0.206-0.17,0.323-0.261c0.926-0.724,1.485-0.978,2.024-1.225c0.53-0.241,1.032-0.47,1.899-1.148   c0.869-0.678,1.212-1.109,1.575-1.565c0.368-0.464,0.75-0.945,1.678-1.668l0,0c0.926-0.724,1.482-0.978,2.023-1.224   c0.531-0.242,1.032-0.471,1.899-1.149c0.012-0.009,0.023-0.018,0.035-0.026C34.026,30.073,33.814,30.475,33.598,30.872z    M36.428,24.705c-0.072,0.053-0.145,0.106-0.222,0.167c-0.867,0.679-1.21,1.108-1.573,1.565c-0.368,0.464-0.751,0.944-1.676,1.668   c-0.926,0.723-1.484,0.977-2.025,1.224c-0.529,0.241-1.03,0.47-1.897,1.146v0.001l0,0c-0.869,0.677-1.212,1.108-1.575,1.565   c-0.369,0.465-0.751,0.944-1.677,1.668c-0.925,0.723-1.484,0.979-2.024,1.224c-0.531,0.243-1.033,0.472-1.901,1.149   c-0.593,0.464-0.939,0.812-1.215,1.131c-0.134-0.156-0.268-0.317-0.403-0.484c0.172-0.193,0.374-0.4,0.636-0.635   c0.173-0.154,0.37-0.319,0.6-0.501c0.927-0.723,1.485-0.978,2.025-1.224c0.53-0.242,1.032-0.471,1.9-1.149   c0.868-0.678,1.21-1.109,1.574-1.566c0.369-0.463,0.751-0.943,1.679-1.667l0,0c0.925-0.723,1.482-0.978,2.022-1.224   c0.532-0.242,1.03-0.471,1.9-1.148c0.866-0.678,1.209-1.109,1.573-1.564c0.368-0.464,0.75-0.944,1.676-1.668   c0.37-0.289,0.68-0.501,0.955-0.67C36.667,24.04,36.551,24.371,36.428,24.705z M37.541,21.094   c-0.407,0.251-0.738,0.402-1.063,0.549c-0.529,0.242-1.03,0.471-1.897,1.149c-0.869,0.677-1.212,1.108-1.573,1.564   c-0.37,0.465-0.75,0.945-1.678,1.667c-0.925,0.724-1.482,0.979-2.022,1.224c-0.532,0.243-1.03,0.472-1.9,1.148   c-0.867,0.678-1.21,1.109-1.573,1.566c-0.092,0.116-0.186,0.232-0.288,0.354c-0.307,0.365-0.694,0.771-1.389,1.313   c-0.694,0.543-1.183,0.822-1.611,1.031c-0.142,0.07-0.279,0.132-0.414,0.193c-0.53,0.243-1.031,0.471-1.899,1.149   c-0.586,0.458-0.931,0.802-1.206,1.119c-0.121-0.173-0.242-0.349-0.362-0.526c0.277-0.308,0.634-0.651,1.186-1.082   c0.925-0.724,1.485-0.978,2.024-1.224c0.531-0.242,1.033-0.471,1.901-1.149c0.867-0.678,1.21-1.109,1.573-1.566   c0.371-0.465,0.752-0.944,1.678-1.667l0,0c0.927-0.724,1.483-0.978,2.024-1.225c0.529-0.241,1.03-0.47,1.897-1.148   c0.869-0.677,1.212-1.108,1.573-1.563c0.37-0.465,0.753-0.945,1.678-1.668c0.926-0.724,1.482-0.978,2.023-1.224   c0.444-0.203,0.871-0.399,1.505-0.854C37.674,20.508,37.611,20.798,37.541,21.094z M36.88,18.341   c-0.926,0.723-1.485,0.978-2.025,1.224c-0.529,0.241-1.03,0.47-1.899,1.148c-0.867,0.678-1.21,1.108-1.571,1.565   c-0.37,0.464-0.753,0.944-1.678,1.668c-0.926,0.722-1.482,0.977-2.023,1.224c-0.531,0.241-1.032,0.469-1.9,1.147l0,0   c-0.866,0.678-1.21,1.109-1.573,1.565c-0.37,0.465-0.752,0.944-1.678,1.668c-0.925,0.723-1.484,0.979-2.024,1.226   c-0.532,0.241-1.033,0.469-1.901,1.147c-0.482,0.378-0.801,0.677-1.052,0.948c-0.111-0.182-0.222-0.367-0.331-0.552   c0.25-0.258,0.564-0.543,1.001-0.886c0.927-0.723,1.485-0.978,2.025-1.224c0.53-0.242,1.031-0.471,1.899-1.149   c0.868-0.678,1.211-1.109,1.575-1.566c0.369-0.464,0.751-0.943,1.678-1.667h-0.001c0.926-0.723,1.484-0.978,2.023-1.224   c0.531-0.242,1.032-0.471,1.899-1.148s1.21-1.108,1.573-1.564c0.371-0.464,0.751-0.944,1.676-1.668   c0.928-0.722,1.484-0.978,2.025-1.224c0.529-0.241,1.03-0.469,1.899-1.147c0.729-0.57,1.086-0.965,1.398-1.347   c0.047,0.263,0.077,0.542,0.091,0.839C37.721,17.629,37.381,17.948,36.88,18.341z"></path></g></g><g id="SvgjsG1613" featurekey="Yxc9Rz-0" transform="matrix(2.9706331769357095,0,0,2.9706331769357095,-2.138859336591378,168.31505620251582)" fill="#ffffff"><path d="M8.66 11.78 l0 -0.24 q0 -2.96 -2.2 -2.96 q-1.26 0 -1.82 1.15 t-0.56 3.39 q0 2.22 0.7 3.3 t2.04 1.08 q0.7 0 1.55 -0.33 t1.85 -1.05 q0.5 0.34 0.93 0.93 t0.53 1.13 q-0.46 0.44 -1.07 0.83 t-1.32 0.67 t-1.48 0.45 t-1.55 0.17 q-1.54 0 -2.6 -0.59 t-1.71 -1.57 t-0.94 -2.26 t-0.29 -2.66 q0 -1.8 0.45 -3.15 t1.22 -2.25 t1.81 -1.35 t2.22 -0.45 q1.2 0 2.18 0.32 t1.67 0.88 t1.06 1.32 t0.37 1.64 q0 1.78 -1.82 1.78 q-0.54 0 -1.22 -0.18 z M20.48 10.9 q1.44 1.44 1.44 4.12 q0 1.2 -0.31 2.18 t-0.9 1.67 t-1.45 1.06 t-1.98 0.37 t-1.97 -0.38 t-1.44 -1.07 t-0.89 -1.67 t-0.3 -2.16 q0 -1.2 0.3 -2.17 t0.88 -1.67 t1.44 -1.08 t1.98 -0.38 q1.98 0 3.2 1.18 z M17.3 12.059999999999999 q-0.44 0 -0.71 0.21 t-0.43 0.57 t-0.22 0.83 t-0.06 1.01 q0 0.84 0.05 1.45 t0.2 1.02 t0.42 0.61 t0.71 0.2 q0.88 0 1.16 -0.77 t0.28 -2.19 q0 -1.44 -0.28 -2.19 t-1.12 -0.75 z M29.06 13.98 q0 -1.34 -0.9 -1.34 q-0.32 0 -0.65 0.19 t-0.67 0.49 l0 6.68 q-0.34 0.06 -0.74 0.09 t-0.82 0.03 t-0.82 -0.03 t-0.74 -0.09 l0 -9.98 l0.14 -0.14 l1.16 0 q1.28 0 1.68 1.26 q1.42 -1.3 2.76 -1.3 q1.62 0 2.34 1.38 q1.56 -1.38 2.96 -1.38 t2.09 0.87 t0.69 2.31 l0 4.48 q0 1.3 0.5 1.98 q-0.76 0.68 -1.82 0.68 q-1.04 0 -1.42 -0.48 t-0.38 -1.46 l0 -4.26 q0 -1.32 -0.94 -1.32 q-0.58 0 -1.28 0.7 l0 6.66 q-0.34 0.06 -0.74 0.09 t-0.82 0.03 t-0.83 -0.03 t-0.75 -0.09 l0 -6.02 z M44.78 20.2 q-0.92 0 -1.84 -0.42 l0 2.66 q0 1.04 -0.38 1.46 t-1.34 0.42 l-1.2 0 l-0.14 -0.14 l0 -14.16 l0.14 -0.14 l0.82 0 q1.14 0 1.7 0.98 q1.14 -1.14 2.78 -1.14 q0.84 0 1.48 0.37 t1.09 1.05 t0.68 1.64 t0.23 2.16 t-0.31 2.18 t-0.85 1.66 t-1.27 1.05 t-1.59 0.37 z M44.4 12.219999999999999 q-0.84 0 -1.46 0.8 l0 4.4 q0.76 0.46 1.3 0.46 q1.36 0 1.36 -3.02 q0 -2.64 -1.2 -2.64 z M57.839999999999996 10.9 q1.44 1.44 1.44 4.12 q0 1.2 -0.31 2.18 t-0.9 1.67 t-1.45 1.06 t-1.98 0.37 t-1.97 -0.38 t-1.44 -1.07 t-0.89 -1.67 t-0.3 -2.16 q0 -1.2 0.3 -2.17 t0.88 -1.67 t1.44 -1.08 t1.98 -0.38 q1.98 0 3.2 1.18 z M54.66 12.059999999999999 q-0.44 0 -0.71 0.21 t-0.43 0.57 t-0.22 0.83 t-0.06 1.01 q0 0.84 0.05 1.45 t0.2 1.02 t0.42 0.61 t0.71 0.2 q0.88 0 1.16 -0.77 t0.28 -2.19 q0 -1.44 -0.28 -2.19 t-1.12 -0.75 z M60.279999999999994 19.32 q0.02 -0.52 0.27 -1.14 t0.59 -0.98 q1.6 0.84 2.78 0.84 q0.56 0 0.86 -0.19 t0.3 -0.51 q0 -0.6 -0.92 -0.9 l-1.1 -0.42 q-2.5 -0.92 -2.5 -3 q0 -1.52 1.05 -2.41 t2.83 -0.89 q0.88 0 1.94 0.25 t1.74 0.59 q0.04 0.56 -0.22 1.23 t-0.64 0.95 q-1.68 -0.76 -2.8 -0.76 q-0.4 0 -0.61 0.18 t-0.21 0.46 q0 0.48 0.76 0.76 l1.24 0.44 q2.66 0.94 2.66 3.22 q0 1.5 -1.1 2.38 t-3.14 0.88 t-3.78 -0.98 z M77.72 16.02 l-5.22 0 q0.04 0.9 0.46 1.4 t1.38 0.5 q0.48 0 1.11 -0.14 t1.45 -0.46 q0.66 0.68 0.82 1.84 q-1.6 1.14 -3.92 1.14 q-1.26 0 -2.11 -0.4 t-1.38 -1.12 t-0.75 -1.7 t-0.22 -2.14 q0 -1.12 0.27 -2.07 t0.82 -1.65 t1.4 -1.1 t1.99 -0.4 q0.96 0 1.73 0.32 t1.31 0.88 t0.83 1.34 t0.29 1.7 q0 1.22 -0.26 2.06 z M72.47999999999999 13.86 l2.64 0 l0 -0.22 q0 -0.74 -0.33 -1.22 t-0.99 -0.48 q-0.64 0 -0.95 0.45 t-0.37 1.47 z M79.27999999999999 11.46 q0.1 -0.4 0.38 -0.89 t0.56 -0.71 q1.84 0.14 2.56 1.82 q0.76 -1.8 2.5 -1.8 q0.52 0 1.32 0.16 q0 0.62 -0.21 1.47 t-0.57 1.45 q-0.34 -0.12 -1.02 -0.2 q-1 0 -1.64 1.02 l0 6.22 q-0.66 0.12 -1.55 0.12 t-1.57 -0.12 l0 -6.46 q0 -1.5 -0.76 -2.08 z M97.32 15.719999999999999 l-1.58 0 l0 4.28 q-0.64 0.12 -1.6 0.12 q-0.98 0 -1.6 -0.12 l0 -13.56 l0.14 -0.14 q1.74 -0.04 2.89 -0.06 t1.75 -0.02 q1.1 0 2.01 0.3 t1.55 0.9 t0.99 1.49 t0.35 2.05 t-0.36 2.05 t-1 1.49 t-1.55 0.91 t-1.99 0.31 z M95.74 8.66 l0 4.66 q0.56 -0.02 0.89 -0.03 t0.43 -0.01 q0.54 0 0.9 -0.19 t0.58 -0.5 t0.32 -0.73 t0.1 -0.88 q0 -0.44 -0.1 -0.86 t-0.31 -0.74 t-0.55 -0.51 t-0.8 -0.19 l-0.82 0 t-0.64 -0.02 z M112.07999999999998 18.56 q-0.1 0.42 -0.38 0.9 t-0.58 0.7 q-1.4 -0.04 -2.16 -1.06 q-1.3 1.2 -2.82 1.2 q-0.78 0 -1.36 -0.25 t-0.98 -0.67 t-0.6 -0.97 t-0.2 -1.15 q0 -0.86 0.31 -1.51 t0.85 -1.08 t1.26 -0.65 t1.54 -0.22 q0.46 0 0.81 0.01 t0.61 0.03 l0 -0.38 q0 -1.26 -1.3 -1.26 q-0.84 0 -2.94 0.64 q-0.6 -0.7 -0.76 -2.18 q0.48 -0.18 1.07 -0.34 t1.21 -0.28 t1.22 -0.19 t1.08 -0.07 q0.7 0 1.35 0.2 t1.14 0.61 t0.78 1.06 t0.29 1.55 l0 4.06 q0 0.92 0.56 1.3 z M106.03999999999999 17.06 q0 0.94 1.08 0.94 q0.56 0 1.26 -0.58 l0 -1.6 q-0.4 -0.02 -0.67 -0.03 t-0.41 -0.01 q-1.26 0 -1.26 1.28 z M117.75999999999999 17.72 l0.54 0 q0.24 0.66 0.24 1.32 t-0.06 0.86 q-1.2 0.2 -2.14 0.2 q-1.36 0 -1.93 -0.67 t-0.57 -2.11 l0 -11.9 l0.12 -0.14 l1.22 0 q0.94 0 1.32 0.42 t0.38 1.46 l0 9.62 q0 0.94 0.88 0.94 z"></path></g></svg>